<svg xmlns="http://www.w3.org/2000/svg" width="20" height="20" viewBox="0 0 20 20"><g><g><path fill="#fff" d="M13.209 7.826l-3.21-5.924-3.208 5.924a.63.63 0 0 1-.626.297H2.127l3.897 3.897a.64.64 0 0 1 .215.664l-1.403 5.188 4.669-3.316a.667.667 0 0 1 .495-.17.667.667 0 0 1 .495.17l4.668 3.316-1.402-5.188a.64.64 0 0 1 .214-.664l3.898-3.897h-4.038a.63.63 0 0 1-.626-.297zm-8.984 11.99a.632.632 0 0 1-.123.088.653.653 0 0 1-.865-.171.574.574 0 0 1-.123-.353.638.638 0 0 1 .022-.192l1.766-6.534L.235 7.987a.626.626 0 0 1-.199-.279.62.62 0 0 1 .64-.834h5.22L9.436.34a.625.625 0 0 1 .672-.337.625.625 0 0 1 .456.337l3.54 6.534h5.22a.619.619 0 0 1 .642.828.626.626 0 0 1-.202.285l-4.667 4.667 1.767 6.534a.638.638 0 0 1 .022.192.574.574 0 0 1-.123.353.653.653 0 0 1-.866.17.632.632 0 0 1-.122-.088L10 15.715z"/></g></g></svg>